<svg version="1.1" xmlns="http://www.w3.org/2000/svg" xmlns:xlink="http://www.w3.org/1999/xlink" width="204.03096" height="202.59273" viewBox="0,0,204.03096,202.59273"><g transform="translate(-137.98452,-79.70363)"><g data-paper-data="{&quot;isPaintingLayer&quot;:true}" fill-rule="nonzero" stroke-linecap="butt" stroke-linejoin="miter" stroke-miterlimit="10" stroke-dasharray="" stroke-dashoffset="0" style="mix-blend-mode: normal"><path d="M171.8934,231.53162h48.34729l-43.51236,50.76475h-4.83465z" fill="#486f88" stroke="none" stroke-width="0"/><path d="M139.23452,236.07956v-107.15937h165.96662c0,0 35.56434,37.21192 35.56434,53.57969c0,18.96743 -35.56434,53.57969 -35.56434,53.57969z" fill="#f3f7f8" stroke="#000000" stroke-width="2.5"/><path d="M222.53037,151.00636c0,5.54746 -6.81084,10.04444 -15.21221,10.04444c-8.40157,0 -15.21221,-4.49697 -15.21221,-10.04444c0,-5.54746 6.81084,-10.04444 15.21221,-10.04444c8.40157,0 15.21221,4.49697 15.21221,10.04444z" fill="#000000" stroke="none" stroke-width="0"/><path d="M269.08595,200.01224c0,5.54727 -6.81084,10.04444 -15.2124,10.04444c-8.40157,0 -15.21221,-4.49697 -15.21221,-10.04444c0,-5.54727 6.81064,-10.04444 15.21221,-10.04444c8.40157,0 15.2124,4.49717 15.2124,10.04444z" fill="#000000" stroke="none" stroke-width="0"/><path d="M174.2487,128.05087l0,-48.34723l50.76479,43.51231l0,4.83463z" data-paper-data="{&quot;index&quot;:null}" fill="#486f88" stroke="none" stroke-width="0"/></g></g></svg>