<svg version="1.1" xmlns="http://www.w3.org/2000/svg" xmlns:xlink="http://www.w3.org/1999/xlink" width="99.67007" height="98.10018" viewBox="0,0,99.67007,98.10018"><g transform="translate(-190.16496,-130.94991)"><g data-paper-data="{&quot;isPaintingLayer&quot;:true}" fill="#ffffff" fill-rule="nonzero" stroke="none" stroke-linecap="butt" stroke-linejoin="miter" stroke-miterlimit="10" stroke-dasharray="" stroke-dashoffset="0" style="mix-blend-mode: normal"><path d="M231.11712,195.58919c0,-12.54226 10.16751,-22.70978 22.70978,-22.70978c12.54226,0 22.70978,10.16751 22.70978,22.70978c0,6.77219 -0.82067,14.45975 -5.52253,18.62051c-4.00609,3.54507 -10.34537,7.3047 -16.11544,7.3047c-12.54226,0 -23.78159,-13.38294 -23.78159,-25.92521z" stroke-width="NaN"/><path d="M213.02243,159.01875c0,-12.54226 9.6316,-28.06884 22.17387,-28.06884c12.54226,0 23.24569,15.52657 23.24569,28.06884c0,12.54226 -10.16751,22.70978 -22.70978,22.70978c-12.54226,0 -22.70978,-10.16751 -22.70978,-22.70978z" stroke-width="NaN"/><path d="M242.27185,172.10189c0,-12.54226 10.16751,-22.70978 22.70978,-22.70978c12.54226,0 24.8534,9.0957 24.8534,21.63797c0,12.54226 -12.31113,23.78159 -24.8534,23.78159c-12.54226,0 -22.70978,-10.16751 -22.70978,-22.70978z" stroke-width="NaN"/><path d="M203.39194,203.66078c0,-12.54226 10.16751,-22.70978 22.70978,-22.70978c12.54226,0 22.70978,10.16751 22.70978,22.70978c0,12.54226 -14.99066,25.38931 -27.53293,25.38931c-12.54226,0 -17.88663,-12.84704 -17.88663,-25.38931z" stroke-width="NaN"/><path d="M190.16496,171.2563c0,-12.54226 13.38294,-21.10206 25.92521,-21.10206c12.54226,0 22.70978,10.16751 22.70978,22.70978c0,12.54226 -10.16751,22.70978 -22.70978,22.70978c-12.54226,0 -25.92521,-11.77523 -25.92521,-24.3175z" stroke-width="NaN"/></g></g></svg>