<svg version="1.1" xmlns="http://www.w3.org/2000/svg" xmlns:xlink="http://www.w3.org/1999/xlink" width="140.04603" height="147.81769" viewBox="0,0,140.04603,147.81769"><g transform="translate(-172.39135,-102.80751)"><g data-paper-data="{&quot;isPaintingLayer&quot;:true}" fill="none" fill-rule="nonzero" stroke="#ffffff" stroke-linecap="butt" stroke-linejoin="miter" stroke-miterlimit="10" stroke-dasharray="" stroke-dashoffset="0" style="mix-blend-mode: normal"><g><path d="M257.34242,121.45383c-1.13806,6.29614 -5.90529,11.62141 -12.53498,13.15016c-8.87968,2.04757 -17.73797,-3.49094 -19.78554,-12.37063c-0.14938,-0.64781 -0.25838,-1.29551 -0.32866,-1.94045" stroke-width="5"/><path d="M285.48995,135.85977c-0.08108,0.09295 -0.16339,0.18523 -0.24692,0.27683c-6.14029,6.73336 -16.57644,7.21413 -23.3098,1.07384c-4.56398,-4.16199 -6.2553,-10.29764 -4.95923,-15.91609" stroke-width="5"/><path d="M299.00786,165.47233c-0.11946,0.03071 -0.23956,0.06017 -0.36026,0.08837c-8.8737,2.07336 -17.74803,-3.4394 -19.82139,-12.3131c-1.40536,-6.01474 0.6746,-12.02976 4.92413,-15.92698" stroke-width="5"/><path d="M300.73811,197.88755c-0.1213,-0.02238 -0.24264,-0.04615 -0.36403,-0.07132c-8.92281,-1.85061 -14.65596,-10.58419 -12.80535,-19.50701c1.25437,-6.04802 5.67102,-10.6306 11.16543,-12.37936" stroke-width="5"/><path d="M180.78261,192.04161c0.12079,-0.02495 0.24215,-0.04863 0.36408,-0.07102c8.96282,-1.64598 17.56293,4.2855 19.2089,13.24833c1.11567,6.07514 -1.25,11.98364 -5.68131,15.67285" stroke-width="5"/><path d="M280.86174,224.84749c-0.07975,-0.09409 -0.15867,-0.18928 -0.23671,-0.2856c-5.73753,-7.07969 -4.64948,-17.4701 2.43023,-23.20764c4.79873,-3.88899 11.11851,-4.64208 16.4794,-2.51894" stroke-width="5"/><path d="M253.03235,239.84821c-0.03072,-0.11946 -0.0602,-0.23954 -0.08841,-0.36025c-2.07434,-8.87347 3.43746,-17.74841 12.31094,-19.82274c6.01458,-1.40602 12.02983,0.67329 15.92751,4.92239" stroke-width="5"/><path d="M221.27199,238.03756c0.03617,-0.11792 0.07372,-0.23573 0.11269,-0.35341c2.86378,-8.65102 12.19836,-13.3425 20.84938,-10.47871c5.8638,1.94111 9.90844,6.85513 11.01419,12.51412" stroke-width="5"/><path d="M195.12563,218.77149c0.09657,-0.07673 0.19421,-0.15259 0.29295,-0.22755c7.2579,-5.51038 17.60863,-4.09373 23.119,3.16418c3.73502,4.91952 4.28752,11.25998 1.99563,16.55092" stroke-width="5"/><path d="M182.71305,159.70553c0.11598,0.04199 0.23178,0.08535 0.34738,0.13011c8.49805,3.29004 12.71998,12.84618 9.42993,21.34424c-2.23004,5.76011 -7.33894,9.55564 -13.04588,10.37887" stroke-width="5"/><path d="M200.96486,132.86846c0.08077,0.09322 0.16072,0.18755 0.23981,0.283c5.81426,7.01681 4.8394,17.41845 -2.17743,23.23271c-4.7561,3.94099 -11.06732,4.76285 -16.451,2.6982" stroke-width="5"/><path d="M225.46845,116.16412c0.04384,0.11529 0.08652,0.23134 0.12802,0.34815c3.05054,8.58694 -1.4376,18.02097 -10.02455,21.07151c-5.82036,2.0677 -12.02991,0.67189 -16.37696,-3.11625" stroke-width="5"/><path d="M309.97364,165.33045c-11.56884,1.21473 -21.94997,-7.1564 -23.2061,-18.73033c-0.66015,-6.08253 1.33103,-11.84176 5.04703,-16.1256" stroke-width="1.5"/><path d="M311.95267,198.11242c-9.28418,-3.20481 -14.2343,-13.31834 -11.05934,-22.62121c1.66856,-4.88901 5.24984,-8.58324 9.62338,-10.53247" stroke-width="1.5"/><path d="M292.29621,230.99914c-6.93103,-8.90308 -5.36014,-21.74244 3.5259,-28.71017c4.66995,-3.6618 10.43291,-4.97475 15.86526,-4.11111" stroke-width="1.5"/><path d="M259.93872,249.8752c-2.21121,-11.06411 4.94211,-21.84126 16.00742,-24.09291c5.81523,-1.18333 11.55612,0.22298 16.02686,3.4275" stroke-width="1.5"/><path d="M221.74795,246.18151c5.12375,-10.05242 17.41766,-14.07445 27.49609,-8.98169c5.29659,2.67644 8.92949,7.33879 10.451,12.62475" stroke-width="1.5"/><path d="M187.40563,226.45264c8.75102,-7.12206 21.62137,-5.82937 28.77975,2.90382c3.76199,4.58962 5.19934,10.32281 4.45345,15.77259" stroke-width="1.5"/><path d="M175.55149,191.43784c11.22234,1.16755 19.39497,11.19377 18.26569,22.42924c-0.59348,5.90466 -3.63819,10.97074 -8.02384,14.29076" stroke-width="1.5"/><path d="M174.59103,154.26091c10.33105,4.5358 15.05503,16.57743 10.55167,26.93266c-2.36669,5.44206 -6.81188,9.33766 -12.00136,11.16133" stroke-width="1.5"/><path d="M191.17291,121.227c7.54277,8.39111 6.883,21.30938 -1.48852,28.88755c-4.39955,3.98261 -10.05533,5.69947 -15.53513,5.22182" stroke-width="1.5"/><path d="M224.81223,103.55751c1.47106,11.1866 -6.38264,21.46456 -17.57313,22.97589c-5.88101,0.79426 -11.51576,-0.99045 -15.76365,-4.48499" stroke-width="1.5"/><path d="M262.39028,104.75246c-4.37276,10.40111 -16.33862,15.31388 -26.76339,10.97394c-5.4786,-2.28081 -9.44364,-6.66419 -11.3487,-11.82434" stroke-width="1.5"/><path d="M292.04292,129.98536c-9.77788,5.63002 -22.27556,2.29457 -27.94428,-7.47152c-2.97912,-5.13244 -3.48057,-11.02176 -1.87226,-16.28197" stroke-width="1.5"/></g></g></g></svg>