<svg version="1.1" xmlns="http://www.w3.org/2000/svg" xmlns:xlink="http://www.w3.org/1999/xlink" width="59.27037" height="28.10389" viewBox="0,0,59.27037,28.10389"><g transform="translate(-221.5762,-165.60416)"><g data-paper-data="{&quot;isPaintingLayer&quot;:true}" fill-rule="nonzero" stroke-linejoin="miter" stroke-miterlimit="10" stroke-dasharray="" stroke-dashoffset="0" style="mix-blend-mode: normal"><path d="M224.77515,185.82002c0,0 -1.69966,-1.69521 -1.71339,-3.23259c-0.02071,-2.3194 -0.11854,-2.99153 -0.11854,-4.38249c0,-2.18135 1.29313,-3.48426 1.29313,-3.48426c0,0 0.94398,-1.50865 3.16098,-1.50865c7.48545,0 49.13883,0 49.13883,0v13.50599c0,0 -42.17555,0.57472 -48.34858,0.57472c-1.37154,0 -3.41242,-1.47273 -3.41242,-1.47273z" fill="#1ee63c" stroke="none" stroke-width="0" stroke-linecap="butt"/><path d="M276.17695,187.03689c0,0 -0.50288,-0.15862 -0.50288,-0.95031c0,-3.08043 0,-10.78412 0,-12.45233c0,-0.62314 0.28736,-0.81923 0.28736,-0.81923c0,0 0.45923,-0.39323 1.00577,-0.39323c0.57109,0 1.86501,0 2.80178,0c0.61603,0 0.79024,0.45877 0.79024,0.45877c0,0 0.28736,0.09466 0.28736,0.68815c0,1.67533 0,9.76258 0,12.71449c0,0.67492 -0.50288,0.75369 -0.50288,0.75369c0,0 0.00381,0.32769 -0.64656,0.32769c-0.90569,0 -2.10479,0 -2.65809,0c-0.56918,0 -0.86208,-0.32769 -0.86208,-0.32769z" fill="#008614" stroke="none" stroke-width="0" stroke-linecap="butt"/><path d="M221.57825,179.13886c0,-0.30415 0.14539,-0.57433 0.37046,-0.74486c0.07244,-0.15957 0.18845,-0.29516 0.33285,-0.39158c0.12043,-0.2256 0.35366,-0.44405 0.80535,-0.44405c0.93393,0 0.93393,0.93393 0.93393,0.93393c0,0.75786 -0.00011,1.51571 -0.00116,2.27357l-0.0214,0.04461l0.01792,0.00179l-0.07081,0.70813c-0.04184,0.47708 -0.44238,0.85127 -0.93032,0.85127c-0.30943,0 -0.58372,-0.15049 -0.75366,-0.38227l-0.42452,-0.56603l0.04546,-0.0341c-0.05983,-0.05859 -0.11628,-0.12069 -0.16851,-0.18716c-0.16643,-0.2118 -0.1351,-1.45999 -0.13558,-1.77591l0.03202,-0.04403c-0.02088,-0.07758 -0.03202,-0.15916 -0.03202,-0.24333z" fill="#17b42f" stroke="none" stroke-width="0.5" stroke-linecap="butt"/><path d="M263.31966,173.24795v-6.39379" fill="none" stroke="#000000" stroke-width="2.5" stroke-linecap="round"/><path d="M241.19068,187.54419v3.23282" fill="none" stroke="#fff1a1" stroke-width="5" stroke-linecap="round"/><path d="M239.1073,187.54419v3.23282" fill="none" stroke="#fff1a1" stroke-width="5" stroke-linecap="round"/><path d="M240.18491,187.25683v3.95122" fill="none" stroke="#1cd437" stroke-width="5" stroke-linecap="round"/><path d="M254.48115,187.54419h5.02883" fill="none" stroke="#fff1a1" stroke-width="5" stroke-linecap="round"/></g></g></svg>