<svg version="1.1" xmlns="http://www.w3.org/2000/svg" xmlns:xlink="http://www.w3.org/1999/xlink" width="32.69869" height="57.28347" viewBox="0,0,32.69869,57.28347"><g transform="translate(-223.28404,-151.52726)"><g data-paper-data="{&quot;isPaintingLayer&quot;:true}" fill-rule="nonzero" stroke-linejoin="miter" stroke-miterlimit="10" stroke-dasharray="" stroke-dashoffset="0" style="mix-blend-mode: normal"><path d="M239.80429,151.52727c7.40251,0 13.58365,5.22934 15.05078,12.19539c-1.21175,-0.044 -2.47961,0.01923 -3.29341,0.15363c-0.71095,0.11741 -1.34061,0.56176 -2.05081,0.6836c-1.07318,0.18411 -2.45268,-0.04414 -3.55412,-0.04414c-2.27868,0 -4.55737,0 -6.83605,0c-4.81752,0 -9.63505,0 -14.45258,0c0.02254,-0.20343 0.03897,-0.4087 0.04911,-0.61563c1.39874,-7.05452 7.62182,-12.37286 15.08706,-12.37286z" fill="#cecdcc" stroke="none" stroke-width="0" stroke-linecap="butt"/><path d="M244.24772,156.3125c5.7072,0 8.95073,2.46625 9.72836,7.39653c-0.91766,0.00425 -1.7968,0.06526 -2.41441,0.16726c-0.71095,0.11741 -1.34061,0.56176 -2.05081,0.6836c-1.07318,0.18411 -2.45268,-0.04414 -3.55412,-0.04414c-2.27868,0 -4.55737,0 -6.83605,0c-2.90391,0 -5.80782,0 -8.71173,0c1.15598,-5.46797 7.82833,-8.20326 13.83876,-8.20326z" fill="#b7b6b5" stroke="none" stroke-width="0" stroke-linecap="butt"/><path d="M224.76498,167.59198v-3.75983h29.7368v3.75983z" fill="#4f4e4e" stroke="none" stroke-width="0" stroke-linecap="butt"/><path d="M224.85044,186.73648v-19.14093h29.5659c0,0 0,14.22235 0,17.13462c0,0.99654 -0.59815,1.40815 -0.59815,1.40815c0,0 -0.17544,0.59815 -1.06813,0.59815c-3.65282,0 -27.89962,0 -27.89962,0z" fill="#f7d9a4" stroke="none" stroke-width="0" stroke-linecap="butt"/><path d="M225.53404,186.05287v-17.74945h28.19869" fill="none" stroke="#ff0000" stroke-width="4.5" stroke-linecap="round"/><path d="M234.7627,172.38078v-3.75983" fill="none" stroke="#ff0000" stroke-width="4.5" stroke-linecap="round"/><path d="M227.41395,187.33463c-0.30861,0 -0.53149,-0.08574 -0.69244,-0.20957c-0.0981,0.02474 -0.20856,0.03867 -0.33296,0.03867c-0.47904,0 -0.7515,-0.20658 -0.90646,-0.44156c-0.14036,0.06406 -0.29638,0.09976 -0.46075,0.09976c-0.61351,0 -1.11086,-0.49735 -1.11086,-1.11086c0,-0.21986 0.06387,-0.4248 0.17407,-0.59728c0.03952,-0.52492 0.44384,-0.94805 0.96014,-1.01656c-0.17533,-1.91621 -0.11515,-3.91239 -0.10925,-5.80424c-0.17046,-0.29587 -0.17046,-0.61427 -0.17046,-0.61427v-0.5127c0.00445,-1.31328 0.2132,-2.57409 0.34721,-3.86929c0.08458,-0.8175 0.01283,-1.62187 0.12376,-2.40006c-0.20754,-0.38995 -0.096,-0.83612 -0.096,-0.83612l0.35991,-1.0807c0.93054,-1.15254 1.63437,-1.44196 3.1104,-1.46975c0,0 0.02104,0 0.05733,0.0029c0.66712,-0.06941 1.37746,-0.0029 1.99349,-0.0029c0,0 1.11086,0 1.11086,1.11086c0,1.11086 -1.11086,1.11086 -1.11086,1.11086c-0.05035,0 -0.11217,-0.003 -0.18266,-0.00785c-0.2814,0.29931 -0.69858,0.34241 -0.81287,0.34861c-0.32668,0.24501 -0.80483,0.60362 -0.93577,0.70183c-0.52303,0.72294 -1.13564,1.42675 -1.37535,2.30643c-0.00719,0.14175 -0.01696,0.28665 -0.03133,0.43482c-0.02057,0.2122 -0.04431,0.42351 -0.06946,0.63434c0.0139,0.50519 0.07618,1.03522 0.07486,1.47792c-0.00116,0.39028 -0.03602,0.76552 -0.07396,1.13858c0.07396,0.21704 0.07396,0.39953 0.07396,0.39953c0,0.99587 0.14408,1.4111 0.32176,2.35345c0.1546,0.81992 -0.17271,1.75892 0,2.56352c0.22946,1.06894 0.37409,2.18012 0.7951,3.21553l0.07945,0.92527c0,0 0,1.11086 -1.11086,1.11086z" fill="#ff0000" stroke="none" stroke-width="0.5" stroke-linecap="butt"/><path d="M245.11931,173.91889c0,1.51018 -1.59151,2.73442 -3.55474,2.73442c-1.96323,0 -3.55474,-1.22424 -3.55474,-2.73442c0,-1.51018 1.59151,-2.73442 3.55474,-2.73442c1.96323,0 3.55474,1.22424 3.55474,2.73442z" fill="#ffffff" stroke="none" stroke-width="0" stroke-linecap="butt"/><path d="M253.12726,173.91889c0,1.51018 -1.59151,2.73442 -3.55474,2.73442c-1.96323,0 -3.55474,-1.22424 -3.55474,-2.73442c0,-1.51018 1.59151,-2.73442 3.55474,-2.73442c1.96323,0 3.55474,1.22424 3.55474,2.73442z" fill="#ffffff" stroke="none" stroke-width="0" stroke-linecap="butt"/><path d="M244.11344,174.26273c0,0.45845 -0.45909,0.83009 -1.02541,0.83009c-0.56632,0 -1.02541,-0.37164 -1.02541,-0.83009c0,-0.45845 0.45909,-0.83009 1.02541,-0.83009c0.56632,0 1.02541,0.37164 1.02541,0.83009z" fill="#000000" stroke="none" stroke-width="0" stroke-linecap="butt"/><path d="M252.51201,174.36038c0,0.45845 -0.45909,0.83009 -1.02541,0.83009c-0.56632,0 -1.02541,-0.37164 -1.02541,-0.83009c0,-0.45845 0.45909,-0.83009 1.02541,-0.83009c0.56632,0 1.02541,0.37164 1.02541,0.83009z" fill="#000000" stroke="none" stroke-width="0" stroke-linecap="butt"/><path d="M226.8252,200.10654c0,0 -0.39653,-0.2758 -0.7377,-0.91426c-0.01899,-0.12278 -0.04194,-0.24342 -0.06865,-0.36161c-0.04118,-0.18222 -0.09127,-0.35863 -0.14956,-0.52816c-0.06308,-0.22699 -0.11684,-0.43722 -0.14335,-0.60912l-0.01373,-0.03958c-0.03142,-0.20373 -0.06746,-0.41494 -0.10829,-0.63085c0,-2.7879 0,-6.25682 0,-7.65204c0,-1.18519 0.67849,-2.22628 0.67849,-2.22628c0,0 0.24854,-0.39578 1.22129,-0.39578c2.59431,0 14.52233,0 19.06565,0c1.0975,0 1.28914,0.98946 1.28914,0.98946c0,0 0.47494,0.11019 0.47494,1.63261c0,2.64446 0,6.56449 0,8.2125c0,1.45759 -0.88204,2.12733 -0.88204,2.12733c0,0 -0.09209,0.63669 -0.71985,1.01419c-0.42433,0.04563 -1.03318,0.16938 -1.50555,0.27211c-4.77678,0 -13.65618,0 -16.3653,0c-1.54098,0 -2.03548,-0.89051 -2.03548,-0.89051z" fill="#b7b6b5" stroke="none" stroke-width="0" stroke-linecap="butt"/><path d="M228.38918,189.3495c-0.18312,0.23087 -0.36624,0.46175 -0.54935,0.69262l-0.08744,0.36277c0,0 -0.10518,0.26523 -0.30274,0.46333c0.0001,0.65541 0.00834,1.3117 0.00834,1.96581c0,1.47922 -0.48023,4.62805 0.46695,5.50139l0.23295,0.31738c0,0 0.63123,0.90955 0,1.8191c-0.24916,0.35902 -0.49832,0.43461 -0.70866,0.39459c-0.17924,-0.18033 -0.37411,-0.33063 -0.58108,-0.44585l-0.01445,-0.02715c-0.27662,-0.32181 -0.543,-0.70297 -0.75566,-1.13007c-0.02082,-0.14739 -0.04732,-0.29181 -0.07917,-0.43275c-0.04118,-0.18222 -0.09127,-0.35863 -0.14956,-0.52816c-0.06308,-0.22699 -0.11684,-0.43722 -0.14335,-0.60912l-0.01373,-0.03958c-0.02799,-0.18151 -0.05966,-0.36896 -0.09511,-0.56038c-0.01153,-0.76491 0.05548,-1.6105 0.05548,-2.2805c0,-1.65762 -0.07546,-3.35789 0.00111,-5.01137c0.04951,-1.06908 0.10409,-2.23824 0.8509,-2.92452c0.22979,-0.21117 1.48526,-0.17767 1.89477,-0.17767c0,0 0.8927,0 0.8927,1.2863c0,1.15959 -0.72549,1.27381 -0.86842,1.28507c-0.0325,0.05107 -0.05445,0.07875 -0.05445,0.07875z" fill="#787777" stroke="none" stroke-width="0.5" stroke-linecap="butt"/><path d="M244.21328,200.05706c0,-1.2863 0.8927,-1.2863 0.8927,-1.2863h0.20601c0.17727,0.0065 0.35454,0.01301 0.53181,0.01951c0.33403,-0.17311 0.90758,-0.49093 1.01722,-1.08488c0.09557,-0.51771 -0.0383,-1.07046 -0.0383,-1.60617c0,-1.62325 0.03754,-3.24437 -0.12751,-4.85588c-0.04929,-0.48134 -0.02686,-1.00906 -0.1925,-1.43305c-0.12533,-0.32082 -0.47149,-0.29347 -0.72006,-0.37867c-0.82322,-0.28215 -1.68893,-0.15966 -2.53074,-0.15966c0,0 -0.8927,0 -0.8927,-1.2863c0,-1.2863 0.8927,-1.2863 0.8927,-1.2863c1.48883,0 3.69857,-0.37875 4.71483,1.63848c0.17573,0.34881 0.35545,1.4403 0.44771,2.13941c-0.00817,0.12436 -0.01235,0.25039 -0.01235,0.37783c0,0.18463 0.00878,0.3663 0.02576,0.5442c-0.01698,0.1779 -0.02576,0.35958 -0.02576,0.5442c0,0.358 0.03299,0.7049 0.09483,1.03474c-0.01725,0.17924 -0.02616,0.36232 -0.02616,0.5484c0,0.31282 0.02519,0.61716 0.0728,0.90905c-0.04757,0.65881 -0.02195,1.43519 0.00094,2.13402c-0.04822,0.29363 -0.07373,0.59991 -0.07373,0.91477c0,0.11149 0.0032,0.22191 0.00947,0.33106c-0.17868,0.79001 -0.35749,1.57718 -0.47083,1.99605c-0.24588,0.37399 -0.53986,0.66297 -0.86143,0.90512c-0.33515,-0.0619 -1.49196,0.18404 -2.15565,0.33179c-0.17025,-0.02385 -0.34059,-0.03553 -0.50932,-0.03479c-0.15093,-0.18933 -0.26973,-0.48739 -0.26973,-0.95664z" fill="#787777" stroke="none" stroke-width="0.5" stroke-linecap="butt"/><path d="M226.1007,193.48129c0.08046,-0.56388 0.20415,-1.04368 0.36423,-1.45363c0.10764,-1.37664 0.45225,-2.63457 1.36657,-3.82266c0,0 0.09279,-0.11699 0.23957,-0.21432c0.24549,-0.30296 0.53908,-0.55218 0.89,-0.73055c0.30494,-0.155 0.64599,-0.04401 0.96899,-0.06601c0,0 0.14436,0 0.31699,0.08365c0.37408,-0.06193 0.75941,-0.05243 1.14742,0.03604l0.88217,1.60547c0,0 0.31345,1.2044 -0.52241,1.65604c-0.08613,0.04654 -0.16672,0.0755 -0.24198,0.09c0.02374,1.04985 -0.69619,1.24777 -0.76412,1.2641c-0.17093,0.46548 -0.53577,0.64071 -0.53577,0.64071l-0.39948,0.15857c-0.4355,0.04512 -0.84629,0.28517 -1.18807,0.65892c0.00016,0.12083 0.00059,0.23393 0.00054,0.33692c-0.00004,0.07005 -0.01542,1.39928 0.0279,1.59463c0.20275,0.91429 0.88977,1.55061 1.053,2.50351c0.12916,0.75399 0.54916,1.74675 0.18183,2.31506c-0.2516,0.38926 -0.64935,0.48602 -1.05542,0.45005c-0.41672,0.58544 -0.83172,0.38548 -1.06333,0.18532c-0.52903,0.0619 -0.81703,-0.68504 -0.81703,-0.68504c-0.39599,-1.02705 -0.87595,-2.013 -0.99558,-3.20838c-0.08701,-0.86945 -0.03659,-1.7081 0.12442,-2.48124c-0.00821,-0.30809 -0.02322,-0.61726 0.01957,-0.91717z" fill="#b7b6b5" stroke="none" stroke-width="0.5" stroke-linecap="butt"/><path d="M244.7317,187.51593c0.54642,0.16538 0.96295,0.35298 1.3307,0.66229c0.17134,0.09818 0.32483,0.20815 0.44723,0.33582c0.8055,0.84022 0.96044,2.25197 1.17925,3.51397c0.30921,1.78334 0.558,4.00521 0.01745,5.7836c-0.09309,0.30628 -0.23069,0.61757 -0.38675,0.92762c-0.06447,0.15413 -0.13581,0.30243 -0.21448,0.4441c-0.06619,0.1192 -0.13512,0.23192 -0.20654,0.33843c-0.18197,0.32752 -0.3597,0.64745 -0.50044,0.95198l-0.2169,0.33238c-0.41078,0.07201 -0.86027,0.16923 -1.18887,0.24239c-0.45614,-0.0639 -0.91285,-0.04043 -1.33794,0.07506c-0.2534,-0.06324 -0.74583,-0.30904 -0.74583,-1.26439c0,-1.2863 0.8927,-1.2863 0.8927,-1.2863h0.06867c0.52262,0.01279 0.55437,0.09703 1.02634,-0.19566c1.39571,-0.86555 1.15927,-2.83062 0.9749,-4.66022c-0.08276,-0.82132 -0.30332,-2.50602 -0.78783,-3.06169c-0.05455,-0.06256 -0.11516,-0.11886 -0.18072,-0.16973c-0.40192,0.38211 -0.88256,0.03583 -0.88256,0.03583l-0.18786,-0.18602c-0.77874,-0.22597 -1.47857,-0.53359 -2.21654,-0.95753c0,0 -0.82885,-0.47772 -0.49731,-1.67201c0.33154,-1.1943 1.16039,-0.71658 1.16039,-0.71658c0.19539,0.11303 0.38618,0.2159 0.57623,0.30976c0.13366,-0.00838 0.22867,0.019 0.22867,0.019c0.13463,0.0388 0.27375,0.07381 0.41576,0.10764c0.35913,-0.27786 0.77075,-0.04062 0.77075,-0.04062c0.06755,0.03908 0.14062,0.07653 0.21788,0.11295c0.14151,-0.01152 0.24367,0.01792 0.24367,0.01792z" fill="#b7b6b5" stroke="none" stroke-width="0.5" stroke-linecap="butt"/><path d="M230.1911,207.97273v-7.02515h6.40879v7.02515z" fill="#807f7f" stroke="none" stroke-width="0" stroke-linecap="butt"/><path d="M237.9671,207.97273v-7.1241h6.06699v7.1241z" fill="#807f7f" stroke="none" stroke-width="0" stroke-linecap="butt"/><path d="M225.09045,207.56073h29.53152" fill="none" stroke="#000000" stroke-width="2.5" stroke-linecap="round"/></g></g></svg>